<svg width="25" height="25" viewBox="0 0 25 25" fill="none" xmlns="http://www.w3.org/2000/svg">
<g clip-path="url(#clip0_7512_7166)">
<path d="M0.0844727 18.3957C0.0844727 19.1029 0.365424 19.7812 0.865521 20.2813C1.36562 20.7814 2.0439 21.0623 2.75114 21.0623H21.4178C22.1251 21.0623 22.8033 20.7814 23.3034 20.2813C23.8035 19.7812 24.0845 19.1029 24.0845 18.3957V15.729H0.0844727V18.3957Z" fill="#FFCD05"/>
<path d="M0.0844727 9.729H24.0845V15.729H0.0844727V9.729Z" fill="#ED1F24"/>
<path d="M21.4178 3.729H2.75114C2.0439 3.729 1.36562 4.00996 0.865521 4.51005C0.365424 5.01015 0.0844727 5.68843 0.0844727 6.39567L0.0844727 9.729H24.0845V6.39567C24.0845 5.68843 23.8035 5.01015 23.3034 4.51005C22.8033 4.00996 22.1251 3.729 21.4178 3.729Z" fill="#141414"/>
</g>
<defs>
<clipPath id="clip0_7512_7166">
<rect width="24" height="24" fill="white" transform="translate(0.0844727 0.395752)"/>
</clipPath>
</defs>
</svg>
